<svg width="32" height="32" viewBox="0 0 32 32" fill="none" xmlns="http://www.w3.org/2000/svg">
<path d="M16 -0.000244141C11.6533 -0.000244141 11.1107 0.0197559 9.404 0.0957559C7.7 0.175756 6.54 0.443756 5.52 0.839756C4.468 1.24776 3.57467 1.79576 2.68533 2.68509C1.796 3.57442 1.24667 4.46642 0.84 5.51976C0.444 6.53976 0.174667 7.69976 0.096 9.40376C0.016 11.1104 0 11.6531 0 15.9998C0 20.3464 0.02 20.8891 0.096 22.5958C0.176 24.2984 0.444 25.4598 0.84 26.4798C1.248 27.5304 1.796 28.4251 2.68533 29.3144C3.57467 30.2024 4.46667 30.7531 5.52 31.1598C6.54133 31.5544 7.70133 31.8251 9.404 31.9038C11.1107 31.9838 11.6533 31.9998 16 31.9998C20.3467 31.9998 20.8893 31.9798 22.596 31.9038C24.2987 31.8238 25.46 31.5544 26.48 31.1598C27.5307 30.7518 28.4253 30.2024 29.3147 29.3144C30.2027 28.4251 30.7533 27.5344 31.16 26.4798C31.5547 25.4598 31.8253 24.2984 31.904 22.5958C31.984 20.8891 32 20.3464 32 15.9998C32 11.6531 31.98 11.1104 31.904 9.40376C31.824 7.70109 31.5547 6.53842 31.16 5.51976C30.752 4.46776 30.2027 3.57442 29.3147 2.68509C28.4253 1.79576 27.5347 1.24642 26.48 0.839756C25.46 0.443756 24.2987 0.174423 22.596 0.0957559C20.8893 0.0157559 20.3467 -0.000244141 16 -0.000244141ZM16 2.87976C20.2707 2.87976 20.78 2.90109 22.4667 2.97442C24.0267 3.04776 24.8733 3.30642 25.436 3.52776C26.1853 3.81709 26.716 4.16376 27.2787 4.72242C27.8373 5.28242 28.184 5.81442 28.4733 6.56376C28.692 7.12642 28.9533 7.97309 29.024 9.53309C29.1 11.2211 29.1173 11.7278 29.1173 15.9998C29.1173 20.2718 29.0973 20.7798 29.0187 22.4664C28.9373 24.0264 28.6773 24.8731 28.4573 25.4358C28.1587 26.1851 27.8187 26.7158 27.2587 27.2784C26.7 27.8371 26.16 28.1838 25.4187 28.4731C24.8587 28.6918 23.9987 28.9531 22.4387 29.0238C20.74 29.0998 20.24 29.1171 15.96 29.1171C11.6787 29.1171 11.1787 29.0971 9.48133 29.0184C7.92 28.9371 7.06 28.6771 6.5 28.4571C5.74133 28.1584 5.22 27.8184 4.66133 27.2584C4.1 26.6998 3.74133 26.1598 3.46133 25.4184C3.24133 24.8584 2.98267 23.9984 2.90133 22.4384C2.84133 20.7584 2.82 20.2398 2.82 15.9798C2.82 11.7184 2.84133 11.1984 2.90133 9.49842C2.98267 7.93842 3.24133 7.07976 3.46133 6.51976C3.74133 5.75976 4.1 5.23976 4.66133 4.67842C5.22 4.11976 5.74133 3.75976 6.5 3.48109C7.06 3.25976 7.90133 2.99976 9.46133 2.91976C11.1613 2.85976 11.6613 2.83976 15.94 2.83976L16 2.87976ZM16 7.78376C11.46 7.78376 7.784 11.4638 7.784 15.9998C7.784 20.5398 11.464 24.2158 16 24.2158C20.54 24.2158 24.216 20.5358 24.216 15.9998C24.216 11.4598 20.536 7.78376 16 7.78376ZM16 21.3331C13.0533 21.3331 10.6667 18.9464 10.6667 15.9998C10.6667 13.0531 13.0533 10.6664 16 10.6664C18.9467 10.6664 21.3333 13.0531 21.3333 15.9998C21.3333 18.9464 18.9467 21.3331 16 21.3331ZM26.4613 7.45976C26.4613 8.51976 25.6 9.37976 24.5413 9.37976C23.4813 9.37976 22.6213 8.51842 22.6213 7.45976C22.6213 6.40109 23.4827 5.54109 24.5413 5.54109C25.5987 5.53976 26.4613 6.40109 26.4613 7.45976Z" fill="white"/>
</svg>
