<svg width="32" height="32" viewBox="0 0 32 32" fill="none" xmlns="http://www.w3.org/2000/svg">
<path d="M16 -0.000244141C7.2 -0.000244141 0 7.19976 0 15.9998C0 24.7998 7.2 31.9998 16 31.9998C24.8 31.9998 32 24.7998 32 15.9998C32 7.19976 24.88 -0.000244141 16 -0.000244141ZM23.3613 23.1198C23.0413 23.5984 22.4813 23.7598 22 23.4398C18.24 21.1198 13.52 20.6384 7.91867 21.9184C7.36133 22.0811 6.88 21.6798 6.72 21.1998C6.56 20.6384 6.96 20.1598 7.44 19.9998C13.52 18.6384 18.8 19.1998 22.96 21.7598C23.52 21.9998 23.5987 22.6384 23.3613 23.1198ZM25.2813 18.7198C24.88 19.2798 24.16 19.5198 23.5987 19.1198C19.28 16.4798 12.72 15.6798 7.68 17.2798C7.04133 17.4398 6.32 17.1198 6.16 16.4798C6 15.8398 6.32 15.1184 6.96 14.9584C12.8 13.1998 20 14.0811 24.96 17.1198C25.4413 17.3611 25.68 18.1598 25.2813 18.7198ZM25.4413 14.2398C20.32 11.1998 11.76 10.8798 6.88 12.4011C6.08 12.6398 5.28 12.1598 5.04 11.4398C4.8 10.6384 5.28 9.83976 6 9.59842C11.68 7.91842 21.04 8.23842 26.9613 11.7598C27.68 12.1598 27.92 13.1198 27.52 13.8398C27.1213 14.4011 26.16 14.6384 25.4413 14.2398Z" fill="white"/>
</svg>
