<svg width="32" height="28" viewBox="0 0 32 28" fill="none" xmlns="http://www.w3.org/2000/svg">
<path d="M31.9387 4.09172C30.7587 4.61038 29.4987 4.96372 28.172 5.12505C29.524 4.31038 30.564 3.02638 31.056 1.49438C29.788 2.23438 28.3827 2.77305 26.8867 3.07305C25.692 1.79438 23.9893 0.994385 22.0987 0.994385C18.476 0.994385 15.5387 3.93172 15.5387 7.55038C15.5387 8.07038 15.5987 8.57038 15.708 9.04905C10.2547 8.79172 5.42133 6.17305 2.18667 2.21438C1.61733 3.17705 1.29867 4.29572 1.29867 5.51438C1.29867 7.79438 2.45867 9.79838 4.216 10.9757C3.14 10.9411 2.128 10.6451 1.24533 10.1544V10.2357C1.24533 13.4157 3.50267 16.0677 6.50667 16.6717C5.956 16.8197 5.37467 16.8997 4.77867 16.8997C4.36 16.8997 3.95867 16.8597 3.55733 16.785C4.39867 19.389 6.81733 21.2877 9.696 21.3411C7.456 23.0997 4.61733 24.1477 1.56 24.1477C1.04 24.1477 0.521333 24.1171 0 24.0584C2.91867 25.9171 6.35733 27.0037 10.076 27.0037C22.148 27.0037 28.7413 17.0091 28.7413 8.35572C28.7413 8.07705 28.7413 7.79572 28.7213 7.51572C30.0027 6.59705 31.1213 5.43572 32.0013 4.11838L31.9387 4.09172Z" fill="white"/>
</svg>
