<svg width="23" height="17" viewBox="0 0 23 17" fill="none" xmlns="http://www.w3.org/2000/svg">
<path d="M1.6 0.00366211H9.6C10.0243 0.00366211 10.4313 0.172246 10.7314 0.472327C11.0314 0.772408 11.2 1.1794 11.2 1.60378C11.2 2.02816 11.0314 2.43516 10.7314 2.73524C10.4313 3.03532 10.0243 3.2039 9.6 3.2039H1.6C1.17565 3.2039 0.768687 3.03532 0.468629 2.73524C0.168571 2.43516 0 2.02816 0 1.60378C0 1.1794 0.168571 0.772408 0.468629 0.472327C0.768687 0.172246 1.17565 0.00366211 1.6 0.00366211ZM12.8 12.8046H20.8C21.2243 12.8046 21.6313 12.9732 21.9314 13.2733C22.2314 13.5734 22.4 13.9804 22.4 14.4047C22.4 14.8291 22.2314 15.2361 21.9314 15.5362C21.6313 15.8363 21.2243 16.0049 20.8 16.0049H12.8C12.3757 16.0049 11.9687 15.8363 11.6686 15.5362C11.3686 15.2361 11.2 14.8291 11.2 14.4047C11.2 13.9804 11.3686 13.5734 11.6686 13.2733C11.9687 12.9732 12.3757 12.8046 12.8 12.8046ZM1.6 6.40415H20.8C21.2243 6.40415 21.6313 6.57273 21.9314 6.87281C22.2314 7.17289 22.4 7.57989 22.4 8.00427C22.4 8.42865 22.2314 8.83564 21.9314 9.13572C21.6313 9.4358 21.2243 9.60439 20.8 9.60439H1.6C1.17565 9.60439 0.768687 9.4358 0.468629 9.13572C0.168571 8.83564 0 8.42865 0 8.00427C0 7.57989 0.168571 7.17289 0.468629 6.87281C0.768687 6.57273 1.17565 6.40415 1.6 6.40415Z" fill="#DABB90"/>
</svg>
