<svg width="23" height="17" viewBox="0 0 23 17" fill="none" xmlns="http://www.w3.org/2000/svg">
<path d="M1.6 0.0273438H9.6C10.0243 0.0273438 10.4313 0.196013 10.7314 0.496245C11.0314 0.796478 11.2 1.20368 11.2 1.62827C11.2 2.05287 11.0314 2.46007 10.7314 2.7603C10.4313 3.06053 10.0243 3.2292 9.6 3.2292H1.6C1.17565 3.2292 0.768687 3.06053 0.468629 2.7603C0.168571 2.46007 0 2.05287 0 1.62827C0 1.20368 0.168571 0.796478 0.468629 0.496245C0.768687 0.196013 1.17565 0.0273437 1.6 0.0273438ZM12.8 12.8348H20.8C21.2243 12.8348 21.6313 13.0034 21.9314 13.3037C22.2314 13.6039 22.4 14.0111 22.4 14.4357C22.4 14.8603 22.2314 15.2675 21.9314 15.5677C21.6313 15.868 21.2243 16.0366 20.8 16.0366H12.8C12.3757 16.0366 11.9687 15.868 11.6686 15.5677C11.3686 15.2675 11.2 14.8603 11.2 14.4357C11.2 14.0111 11.3686 13.6039 11.6686 13.3037C11.9687 13.0034 12.3757 12.8348 12.8 12.8348ZM1.6 6.43106H20.8C21.2243 6.43106 21.6313 6.59973 21.9314 6.89996C22.2314 7.20019 22.4 7.6074 22.4 8.03199C22.4 8.45658 22.2314 8.86378 21.9314 9.16402C21.6313 9.46425 21.2243 9.63292 20.8 9.63292H1.6C1.17565 9.63292 0.768687 9.46425 0.468629 9.16402C0.168571 8.86378 0 8.45658 0 8.03199C0 7.6074 0.168571 7.20019 0.468629 6.89996C0.768687 6.59973 1.17565 6.43106 1.6 6.43106Z" fill="#DABB90"/>
</svg>
