<svg width="17" height="17" viewBox="0 0 17 17" fill="none" xmlns="http://www.w3.org/2000/svg">
<path d="M9.88576 8.00386L15.618 2.285C15.869 2.03398 16.01 1.69352 16.01 1.33852C16.01 0.983524 15.869 0.643066 15.618 0.392044C15.3669 0.141023 15.0265 0 14.6715 0C14.3165 0 13.976 0.141023 13.725 0.392044L8.00614 6.12424L2.28728 0.392044C2.03625 0.141023 1.6958 -2.64494e-09 1.3408 0C0.985799 2.64494e-09 0.645341 0.141023 0.394319 0.392044C0.143298 0.643066 0.00227502 0.983524 0.00227501 1.33852C0.00227501 1.69352 0.143298 2.03398 0.394319 2.285L6.12651 8.00386L0.394319 13.7227C0.269373 13.8467 0.170201 13.9941 0.102522 14.1565C0.0348444 14.319 0 14.4932 0 14.6692C0 14.8452 0.0348444 15.0194 0.102522 15.1819C0.170201 15.3443 0.269373 15.4918 0.394319 15.6157C0.518245 15.7406 0.665684 15.8398 0.82813 15.9075C0.990577 15.9752 1.16482 16.01 1.3408 16.01C1.51678 16.01 1.69102 15.9752 1.85346 15.9075C2.01591 15.8398 2.16335 15.7406 2.28728 15.6157L8.00614 9.88349L13.725 15.6157C13.8489 15.7406 13.9964 15.8398 14.1588 15.9075C14.3213 15.9752 14.4955 16.01 14.6715 16.01C14.8475 16.01 15.0217 15.9752 15.1841 15.9075C15.3466 15.8398 15.494 15.7406 15.618 15.6157C15.7429 15.4918 15.8421 15.3443 15.9098 15.1819C15.9774 15.0194 16.0123 14.8452 16.0123 14.6692C16.0123 14.4932 15.9774 14.319 15.9098 14.1565C15.8421 13.9941 15.7429 13.8467 15.618 13.7227L9.88576 8.00386Z" fill="#1A1F24"/>
</svg>
